<svg width="39" height="39" viewBox="0 0 39 39" fill="none" xmlns="http://www.w3.org/2000/svg">
<path d="M30.6325 0.0483398H7.80314C3.51048 0.0483398 0 3.53615 0 7.79738V30.4793C0 34.7406 3.51048 38.2284 7.7994 38.2284H30.6287C34.9177 38.2284 38.4281 34.7406 38.4281 30.4793V7.79738C38.4319 3.53615 34.9214 0.0483398 30.6325 0.0483398Z" fill="white"/>
<path d="M19.4015 13.3489L13.5781 19.1421L19.4015 24.9353C22.62 28.1331 27.8334 28.1331 31.0482 24.9353C34.2667 21.7375 34.2667 16.5504 31.0482 13.3526C27.8334 10.1511 22.62 10.1511 19.4015 13.3489Z" fill="#054146"/>
<path d="M8.85864 19.1421L3.03528 13.3489C2.60864 12.925 2.14457 12.5606 1.6543 12.252V26.0284C2.14457 25.7198 2.60864 25.3591 3.03528 24.9315L8.85864 19.1421Z" fill="#054146"/>
<path d="M17.0403 27.2779L11.2169 21.4884L5.39358 27.2779C3.44373 29.2151 2.69149 31.9035 3.10316 34.4134C4.2334 35.7408 5.91753 36.5886 7.80002 36.5886H18.6571C20.1129 33.547 19.5777 29.7952 17.0403 27.2779Z" fill="#054146"/>
<path d="M5.39344 11.0026L11.2168 16.7958L17.0401 11.0026C19.5738 8.48526 20.1053 4.72972 18.6494 1.68811H7.79988C5.91739 1.68811 4.22952 2.53589 3.09928 3.86335C2.69134 6.37695 3.44733 9.06904 5.39344 11.0026Z" fill="#054146"/>
</svg>
